PathFileType	4	(X/Y/Z)	 s09c0401.trc
DataRate	CameraRate	NumFrames	NumMarkers	Units	OrigDataRate	OrigDataStartFrame	OrigNumFrames
200	200	5	50	mm	200	1751	2000
Frame#	Time	racr			lacr			c7			jug			rlel			rdr			llel			ldr			s2			lic			ric			lasi			rasi			rpsi			lpsi			rgt			lgt			rth1			rth2			rth3			rth4			rlfc			rmfc			rsh1			rsh2			rsh3			rsh4			rlmal			rmmal			rcal			rtoe			rmt5			lth1			lth2			lth4			lth3			llfc			lmfc			llmal			lmmal			lcal			lmt5			lsh1			lsh2			lsh3			lsh4			ltoe			SBIKE			LBIKE			RBIKE			
		X1	Y1	Z1	X2	Y2	Z2	X3	Y3	Z3	X4	Y4	Z4	X5	Y5	Z5	X6	Y6	Z6	X7	Y7	Z7	X8	Y8	Z8	X9	Y9	Z9	X10	Y10	Z10	X11	Y11	Z11	X12	Y12	Z12	X13	Y13	Z13	X14	Y14	Z14	X15	Y15	Z15	X16	Y16	Z16	X17	Y17	Z17	X18	Y18	Z18	X19	Y19	Z19	X20	Y20	Z20	X21	Y21	Z21	X22	Y22	Z22	X23	Y23	Z23	X24	Y24	Z24	X25	Y25	Z25	X26	Y26	Z26	X27	Y27	Z27	X28	Y28	Z28	X29	Y29	Z29	X30	Y30	Z30	X31	Y31	Z31	X32	Y32	Z32	X33	Y33	Z33	X34	Y34	Z34	X35	Y35	Z35	X36	Y36	Z36	X37	Y37	Z37	X38	Y38	Z38	X39	Y39	Z39	X40	Y40	Z40	X41	Y41	Z41	X42	Y42	Z42	X43	Y43	Z43	X44	Y44	Z44	X45	Y45	Z45	X46	Y46	Z46	X47	Y47	Z47	X48	Y48	Z48	X49	Y49	Z49	X50	Y50	Z50	
1751	8.7550	766.127149	1209.384636	-36.583333	755.690938	1158.022361	-402.141995	785.072825	1264.049336	-222.077386	750.407672	1130.714094	-215.811645	606.317297	1047.358250	84.900450	652.811824	861.535400	-52.788886	563.332213	1053.539932	-567.536097	626.380188	861.241568	-439.340428	274.688597	1199.761884	-231.581851	415.639251	1150.669602	-365.821594	394.742313	1140.801145	-72.570775	425.969279	1082.813894	-344.226342	418.375509	1074.710925	-90.950304	309.949938	1213.375909	-167.388623	318.557161	1228.739140	-275.860021	317.854876	1007.871081	-48.612019	358.235257	1051.269219	-423.068898	371.502159	875.554627	-50.580966	416.394083	801.984768	-63.047997	411.315775	712.287525	-79.134824	443.983989	809.809591	-84.044496	431.723614	622.736955	-110.333373	409.110139	602.849957	-204.074069	382.194778	532.853406	-73.972351	383.863658	444.016029	-85.694716	340.531144	367.458129	-84.002823	407.607235	440.562259	-118.846137	308.148371	268.435295	-82.374541	311.538035	278.648607	-157.846390	227.111584	257.295982	-117.336206	476.135118	162.589375	-129.590989	394.606574	172.428043	-62.637894	432.292875	935.617801	-413.728244	499.994286	886.212667	-399.863794	525.522430	906.723305	-380.566738	536.475240	803.647989	-395.094351	557.978878	710.304279	-375.747400	550.676444	694.360037	-276.499935	213.778437	586.926424	-405.667697	229.296524	581.103198	-332.841541	134.393012	614.229072	-367.716363	220.953657	464.820250	-429.530827	467.833576	673.311101	-403.441427	394.728066	626.748278	-396.119681	306.147011	621.158703	-402.746550	402.773956	604.970255	-364.532735	296.083110	411.090747	-359.522653	-64.769417	853.826537	-238.260551	20.770156	84.998743	-441.930617	21.121303	84.086505	-43.766374	
1752	8.7600	766.707975	1209.757461	-38.824853	754.768886	1157.139939	-404.896643	784.794695	1263.920765	-225.377029	750.271189	1130.392211	-218.544889	606.670582	1048.202854	83.003171	653.219196	861.469299	-53.284613	562.227492	1052.061896	-569.410217	626.243264	861.568354	-439.512518	274.456399	1199.172694	-228.916679	414.083738	1151.234011	-365.268106	396.394898	1139.049473	-72.232708	424.966302	1083.276378	-344.181091	419.536687	1073.193994	-91.622673	310.794222	1212.465264	-165.018691	317.911423	1228.672374	-273.502933	318.365086	1006.095471	-48.224585	356.965956	1052.666281	-421.899369	368.716125	873.138424	-49.947913	410.400942	798.100277	-63.637631	404.257906	708.929995	-78.454533	439.359683	805.670426	-83.905210	422.747739	618.990094	-110.727098	398.923010	599.394514	-204.132590	373.509246	529.520250	-73.985065	375.891116	440.360674	-85.582720	333.111745	363.776646	-83.620175	399.571428	437.442425	-118.640324	301.165327	264.958504	-81.976225	304.538544	274.647190	-157.492860	220.468175	255.175425	-117.282531	467.217879	155.083502	-129.458987	385.997037	166.721971	-62.475535	434.195307	938.951422	-412.977389	502.107671	891.324650	-400.171132	528.015231	912.337724	-379.590283	541.879533	809.804042	-395.318579	565.040393	716.075405	-375.100015	558.098693	699.904441	-276.660537	221.209750	591.771979	-405.509010	236.093889	587.247592	-330.914748	140.752708	618.411956	-367.587731	229.976007	470.550409	-429.581047	475.458703	679.003226	-402.522100	402.270528	632.505932	-395.562623	313.734861	626.856261	-402.343989	410.217154	610.616286	-364.001281	306.252388	417.957532	-359.970962	-64.769533	853.835939	-238.295215	20.763755	84.989436	-441.932140	21.123155	84.067623	-43.760383	
1753	8.7650	767.179235	1210.285319	-41.486656	753.859593	1156.200411	-407.562739	784.319891	1263.788870	-228.943615	750.152856	1130.182047	-221.264382	607.080356	1049.140692	81.024538	653.513692	861.391720	-53.693498	560.975331	1050.573586	-571.394476	626.103506	861.696393	-439.740022	274.275236	1198.516501	-226.331272	412.508394	1151.916421	-364.592907	398.119289	1137.264791	-71.866681	424.047532	1083.870204	-344.055737	420.730024	1071.658336	-92.306681	312.127130	1211.411008	-162.616100	317.349096	1228.228398	-271.378398	319.079482	1004.328793	-47.732410	355.605775	1054.042217	-420.667526	366.012814	870.838857	-49.198065	405.693466	794.546103	-63.197022	397.382459	705.745564	-77.542867	434.924829	801.674923	-83.534810	413.898722	615.808703	-110.381182	388.959914	596.012222	-203.535590	364.946926	526.612181	-73.903434	367.898308	437.518111	-85.187359	325.595140	360.544258	-83.163708	391.383034	434.788892	-118.218747	294.159375	261.885236	-81.637646	297.430285	271.147084	-157.018672	213.398278	253.601382	-117.129773	457.945272	148.239784	-129.483085	376.972462	161.546096	-62.478694	435.929999	942.447351	-412.361166	506.555063	895.950773	-398.321939	530.288666	917.982194	-378.819968	546.946169	816.109776	-395.897675	572.116774	722.140605	-374.710282	565.213209	706.056656	-275.689978	228.657190	596.101322	-405.249124	243.474381	592.016039	-330.728911	147.341742	621.868772	-367.622480	239.404117	475.561516	-429.611667	482.861354	684.972572	-401.875182	409.810980	638.188437	-395.065153	321.321731	632.223421	-402.041504	417.911208	615.799334	-363.773177	316.389857	424.515740	-360.113829	-64.766695	853.818853	-238.297068	20.773298	84.991857	-441.927812	21.138144	84.073456	-43.758777	
1754	8.7700	767.555754	1210.863252	-44.410991	752.953297	1155.156732	-409.842379	782.086871	1263.613769	-234.820708	750.168120	1129.965179	-224.273001	607.580515	1050.141827	79.060475	653.670988	861.326355	-54.026361	559.664032	1049.003276	-573.266277	626.018261	861.677212	-439.896861	274.028930	1197.709828	-223.976558	410.988326	1152.625122	-364.059950	399.912093	1135.411243	-71.589092	423.307235	1084.547680	-343.989691	421.899445	1070.111728	-93.190909	312.856493	1210.247505	-160.429628	316.303029	1228.122020	-269.058301	319.866853	1002.463011	-47.210769	354.310926	1055.350273	-419.298815	363.460614	868.614046	-48.342339	401.139934	791.474846	-62.653869	390.880901	702.748849	-76.410354	430.340485	797.802361	-83.304359	405.351966	612.940710	-109.743492	379.765851	593.120400	-203.472733	356.561617	524.198048	-73.699979	359.903968	435.063870	-84.685244	317.917528	357.929676	-82.700259	383.423710	432.371186	-117.778702	286.961704	259.546050	-81.365897	290.152762	268.245925	-156.585797	206.136593	252.529414	-117.060228	448.267790	142.016936	-129.271290	367.593925	157.094418	-62.270068	437.618688	945.962123	-411.691276	508.833385	901.650285	-398.314853	532.443478	923.551393	-378.190869	551.705492	822.319937	-396.383660	579.021429	728.222474	-374.287417	572.256225	712.614672	-274.787846	236.159974	599.804825	-405.047099	250.799820	596.272167	-330.613087	153.874196	624.500954	-367.694520	249.041793	480.149557	-429.757839	490.135770	690.712083	-401.248019	417.314066	643.563602	-394.692288	328.837856	637.278705	-401.760624	425.492219	621.076477	-363.427121	327.005812	430.645885	-360.257003	-64.777704	853.808639	-238.311618	20.787283	84.968875	-441.931174	21.117136	84.061393	-43.770583	
1755	8.7750	767.849250	1211.418026	-47.437004	752.085779	1154.139484	-412.743885	783.438895	1263.301302	-235.635706	749.963421	1129.654442	-227.090055	608.209844	1051.035308	77.094996	653.947368	861.170106	-54.273857	559.037119	1047.137577	-574.662169	625.828452	861.636606	-440.046495	273.774574	1197.042588	-221.124556	409.481355	1153.462372	-363.505424	401.752893	1133.588494	-71.398175	422.644262	1085.374058	-343.916291	423.146368	1068.472506	-94.154403	313.475630	1209.097470	-158.114842	315.345878	1228.001986	-266.753528	320.835358	1000.645542	-46.612322	352.838442	1056.588784	-417.889626	361.172577	866.710274	-47.349710	397.465209	788.820772	-61.588696	384.935741	700.229491	-75.422534	425.590332	794.328370	-83.147266	397.217318	610.330828	-109.029293	370.917533	590.425513	-203.383276	348.401512	522.108076	-73.336562	351.651423	432.931014	-84.499323	310.065687	355.767279	-82.212226	375.913381	430.029325	-116.683305	279.290307	257.503470	-80.957702	282.570876	265.929488	-156.181844	198.442014	251.781385	-116.993128	438.448710	136.689435	-128.781154	357.923008	153.337888	-62.155929	439.207299	949.479456	-410.946640	512.296344	906.524465	-396.708405	534.516953	929.133760	-377.530031	555.248395	828.362363	-397.597734	585.909798	734.447152	-373.802394	579.204501	719.121745	-274.169629	243.632795	602.928173	-404.960017	258.191415	599.884121	-330.515464	160.468450	626.301608	-367.768176	258.789610	484.063686	-429.849186	497.428661	696.379330	-400.424460	424.697081	648.761013	-394.525115	336.289877	641.854041	-401.542003	432.866794	626.624481	-363.141701	337.794854	436.120572	-360.338749	-64.785648	853.817767	-238.328088	20.769897	84.969985	-441.938057	21.119995	84.063885	-43.772715	
